PathFileType	4	(X/Y/Z)	./resultDataOpenSim/trcMotMarkerGrf/sub09/qtm-04-07.trc
DataRate	CameraRate	NumFrames	NumMarkers	Units	OrigDataRate	OrigDataStartFrame	OrigNumFrames
250.000000	250.000000	7	24	m	250.000000	123	488
Frame#	Time	L.Toe.Tip			R.Toe.Tip			L.Ankle.Lat			R.Ankle.Lat			L.Ankle.Med			R.Ankle.Med			L.Heel			R.Heel			L.Knee.Lat			R.Knee.Lat			L.Knee.Med			R.Knee.Med			L.Thigh.Upper			R.Thigh.Upper			L.ASIS			R.ASIS			V.Sacral			L.Acromium			R.Acromium			C7			L.Elbow			R.Elbow			L.Wrist.Lat			R.Wrist.Lat
		X1	Y1	Z1	X2	Y2	Z2	X3	Y3	Z3	X4	Y4	Z4	X5	Y5	Z5	X6	Y6	Z6	X7	Y7	Z7	X8	Y8	Z8	X9	Y9	Z9	X10	Y10	Z10	X11	Y11	Z11	X12	Y12	Z12	X13	Y13	Z13	X14	Y14	Z14	X15	Y15	Z15	X16	Y16	Z16	X17	Y17	Z17	X18	Y18	Z18	X19	Y19	Z19	X20	Y20	Z20	X21	Y21	Z21	X22	Y22	Z22	X23	Y23	Z23	X24	Y24	Z24

123	0.488	-0.33392753	0.076978801	-0.046617786	-0.69218948	0.04011687	0.064397665	-0.48089666	0.10778011	-0.082934807	-0.83679628	0.05591855	0.090819032	-0.45834543	0.12243345	0.011866817	-0.82484128	0.091883271	-0.0012177021	-0.54867729	0.066021053	-0.034283119	-0.90644989	0.034883616	0.039768676	-0.43329557	0.52336456	-0.11410378	-0.66879973	0.48286709	0.15264814	-0.43606219	0.51696661	0.011420992	-0.69364445	0.47646035	0.025377243	-0.63779324	0.89027345	-0.15486992	-0.6696686	0.88963203	0.21857738	-0.57188219	0.97328084	-0.089236859	-0.56711885	0.97247956	0.14974517	-0.73555556	1.0319397	0.023268486	-0.58425445	1.4241379	-0.14567675	-0.59118027	1.4372121	0.18390077	-0.65471472	1.4805631	0.019662873	-0.74751092	1.093927	-0.18315206	-0.6913648	1.0773516	0.28709308	-0.6464608	0.85278687	-0.22094916	-0.44775065	0.94225188	0.24603098
124	0.492	-0.31564714	0.077641623	-0.044957912	-0.69214314	0.040071451	0.064398348	-0.46324388	0.10548833	-0.08233521	-0.83682293	0.055960671	0.090878106	-0.44145702	0.12106339	0.012507469	-0.82464181	0.091892173	-0.0012659961	-0.53023685	0.062610323	-0.034202856	-0.90643638	0.035002116	0.039732868	-0.42659832	0.52247367	-0.11466448	-0.66671568	0.48213799	0.15274667	-0.42926545	0.51624704	0.010821999	-0.69151409	0.47595947	0.025439781	-0.63191428	0.88909768	-0.15491924	-0.66421527	0.88882677	0.21866381	-0.56567007	0.97210728	-0.089178301	-0.56108076	0.97146802	0.14985056	-0.72850935	1.031168	0.019064654	-0.57834777	1.423139	-0.14581292	-0.58546071	1.4362965	0.1837862	-0.64896144	1.4795613	0.019633723	-0.74258075	1.0935756	-0.18355776	-0.68493128	1.0761846	0.28731778	-0.64270609	0.85201851	-0.22178995	-0.44045705	0.94323565	0.24567785
125	0.496	-0.29750665	0.078432128	-0.04321124	-0.69209806	0.040014457	0.064404033	-0.44567719	0.10336721	-0.081777913	-0.83695776	0.055985444	0.091012048	-0.42467193	0.11985319	0.013094771	-0.82443014	0.091897528	-0.0013239138	-0.51180812	0.059331136	-0.034039933	-0.90642143	0.035129714	0.039680163	-0.42000332	0.52138947	-0.11517864	-0.66470313	0.48135295	0.15285899	-0.42254664	0.5153831	0.010319048	-0.6893147	0.47540071	0.025539641	-0.62594576	0.88782653	-0.15493679	-0.65873761	0.88794753	0.2187534	-0.55944309	0.97085161	-0.089107148	-0.55505809	0.97040324	0.14996088	-0.72160501	1.0303642	0.016878664	-0.5724366	1.4220786	-0.14596789	-0.57971274	1.4352962	0.18365918	-0.64316782	1.4784906	0.019564828	-0.73759182	1.0931258	-0.18397906	-0.67856215	1.074961	0.28757424	-0.63892031	0.85116556	-0.22265656	-0.43316402	0.94410315	0.24527098
126	0.5	-0.27955119	0.079353378	-0.041438319	-0.69205995	0.039942028	0.064412415	-0.42820972	0.1014506	-0.081274938	-0.8370655	0.055988922	0.091124192	-0.40798098	0.11879173	0.01362193	-0.8242162	0.091900183	-0.0013835998	-0.49349255	0.056232606	-0.033755856	-0.90640313	0.035271211	0.039615004	-0.41348547	0.52002835	-0.11558111	-0.66271988	0.48053891	0.15301082	-0.41581534	0.51437337	0.0099514617	-0.68704867	0.474804	0.025673548	-0.61989757	0.88646969	-0.15493686	-0.65326907	0.88702678	0.21887151	-0.5531975	0.96952533	-0.089026507	-0.54905024	0.96928613	0.15007465	-0.71499361	1.0294548	0.016640664	-0.56650485	1.420941	-0.14612503	-0.573958	1.4342216	0.18352849	-0.63724655	1.4773185	0.019352943	-0.73254825	1.0925768	-0.18441273	-0.67225159	1.0736744	0.28785146	-0.63508358	0.85022911	-0.2235406	-0.42584888	0.94485771	0.24478629
127	0.504	-0.2618203	0.080412491	-0.039711023	-0.69203184	0.039848732	0.064425281	-0.41088795	0.099714064	-0.080812239	-0.83706381	0.056008215	0.091175934	-0.39141012	0.1178756	0.014101445	-0.8240062	0.091903999	-0.0014369961	-0.47538207	0.053353545	-0.033337873	-0.90637893	0.03543219	0.039539808	-0.40701345	0.51837691	-0.1158506	-0.66068498	0.47973066	0.15320956	-0.4090808	0.5131934	0.0096940802	-0.68472076	0.47420267	0.025821596	-0.61380261	0.88503815	-0.15492839	-0.64781203	0.88607352	0.21901741	-0.54693334	0.96813634	-0.088935501	-0.54305339	0.96812066	0.15019134	-0.70860559	1.0283507	0.017241047	-0.56054713	1.4197178	-0.14627706	-0.5682242	1.4330801	0.1834043	-0.63120885	1.4760424	0.019017387	-0.72745556	1.0919384	-0.1848579	-0.66602041	1.0723273	0.28816051	-0.63121093	0.84921099	-0.22444842	-0.41853882	0.94551469	0.24425438
128	0.508	-0.24434077	0.081620129	-0.038089074	-0.69201015	0.039742933	0.06445105	-0.39377823	0.098090391	-0.080356712	-0.8369706	0.056143287	0.091196994	-0.37498513	0.11711109	0.014562965	-0.823801	0.091913407	-0.0014786544	-0.45746763	0.05066537	-0.032864135	-0.90634975	0.035618369	0.03945608	-0.40060635	0.51652007	-0.11603328	-0.6585432	0.4789497	0.15344647	-0.40246142	0.51180516	0.0094671984	-0.68236091	0.47360792	0.025945461	-0.60769738	0.8835343	-0.1549171	-0.64233581	0.88507318	0.21915985	-0.54065336	0.96668618	-0.088832965	-0.53706412	0.96691713	0.15031715	-0.70232995	1.0270288	0.017818351	-0.55456875	1.4184116	-0.14642673	-0.56250458	1.4318663	0.18328117	-0.62517555	1.4746981	0.01870969	-0.72231479	1.0912159	-0.18531607	-0.65985704	1.0709145	0.28849592	-0.62735102	0.84810963	-0.22540784	-0.41126441	0.94608317	0.24370875
129	0.512	-0.22713335	0.082992857	-0.036603589	-0.69198676	0.039644759	0.064503131	-0.37692303	0.096547173	-0.079894316	-0.83686793	0.056517122	0.091213051	-0.35873537	0.11649826	0.015026479	-0.8235992	0.091930942	-0.0015076305	-0.43971723	0.048117938	-0.032421595	-0.90632124	0.035831595	0.03936604	-0.39429153	0.51455264	-0.1161761	-0.65629951	0.47819157	0.15371425	-0.39601439	0.51019124	0.0092152415	-0.68001362	0.47302471	0.026023741	-0.60161049	0.88195126	-0.15490897	-0.63682494	0.88402839	0.21927413	-0.53435824	0.96517518	-0.088717285	-0.53107933	0.96568337	0.150458	-0.69609151	1.0255357	0.018132581	-0.54857369	1.4170293	-0.14657448	-0.55675689	1.4305676	0.18314384	-0.61922425	1.4733151	0.018522177	-0.7171242	1.0904096	-0.18579198	-0.65368638	1.0694158	0.28881066	-0.62352778	0.84692452	-0.22643653	-0.40403663	0.94655621	0.24316823
